<svg width="50" height="55" viewBox="0 0 50 55" fill="none" xmlns="http://www.w3.org/2000/svg">
<path d="M1.73438 32.8203L8.48438 32.1641C8.89062 34.4297 9.71094 36.0938 10.9453 37.1562C12.1953 38.2188 13.875 38.75 15.9844 38.75C18.2188 38.75 19.8984 38.2812 21.0234 37.3438C22.1641 36.3906 22.7344 35.2812 22.7344 34.0156C22.7344 33.2031 22.4922 32.5156 22.0078 31.9531C21.5391 31.375 20.7109 30.875 19.5234 30.4531C18.7109 30.1719 16.8594 29.6719 13.9688 28.9531C10.25 28.0312 7.64062 26.8984 6.14062 25.5547C4.03125 23.6641 2.97656 21.3594 2.97656 18.6406C2.97656 16.8906 3.46875 15.2578 4.45312 13.7422C5.45312 12.2109 6.88281 11.0469 8.74219 10.25C10.6172 9.45312 12.875 9.05469 15.5156 9.05469C19.8281 9.05469 23.0703 10 25.2422 11.8906C27.4297 13.7813 28.5781 16.3047 28.6875 19.4609L21.75 19.7656C21.4531 18 20.8125 16.7344 19.8281 15.9688C18.8594 15.1875 17.3984 14.7969 15.4453 14.7969C13.4297 14.7969 11.8516 15.2109 10.7109 16.0391C9.97656 16.5703 9.60938 17.2812 9.60938 18.1719C9.60938 18.9844 9.95312 19.6797 10.6406 20.2578C11.5156 20.9922 13.6406 21.7578 17.0156 22.5547C20.3906 23.3516 22.8828 24.1797 24.4922 25.0391C26.1172 25.8828 27.3828 27.0469 28.2891 28.5312C29.2109 30 29.6719 31.8203 29.6719 33.9922C29.6719 35.9609 29.125 37.8047 28.0312 39.5234C26.9375 41.2422 25.3906 42.5234 23.3906 43.3672C21.3906 44.1953 18.8984 44.6094 15.9141 44.6094C11.5703 44.6094 8.23438 43.6094 5.90625 41.6094C3.57812 39.5938 2.1875 36.6641 1.73438 32.8203Z" fill="url(#paint0_linear_180_9)"/>
<path d="M21.7344 32.8203L28.4844 32.1641C28.8906 34.4297 29.7109 36.0938 30.9453 37.1562C32.1953 38.2188 33.875 38.75 35.9844 38.75C38.2188 38.75 39.8984 38.2812 41.0234 37.3438C42.1641 36.3906 42.7344 35.2812 42.7344 34.0156C42.7344 33.2031 42.4922 32.5156 42.0078 31.9531C41.5391 31.375 40.7109 30.875 39.5234 30.4531C38.7109 30.1719 36.8594 29.6719 33.9688 28.9531C30.25 28.0312 27.6406 26.8984 26.1406 25.5547C24.0312 23.6641 22.9766 21.3594 22.9766 18.6406C22.9766 16.8906 23.4688 15.2578 24.4531 13.7422C25.4531 12.2109 26.8828 11.0469 28.7422 10.25C30.6172 9.45312 32.875 9.05469 35.5156 9.05469C39.8281 9.05469 43.0703 10 45.2422 11.8906C47.4297 13.7813 48.5781 16.3047 48.6875 19.4609L41.75 19.7656C41.4531 18 40.8125 16.7344 39.8281 15.9688C38.8594 15.1875 37.3984 14.7969 35.4453 14.7969C33.4297 14.7969 31.8516 15.2109 30.7109 16.0391C29.9766 16.5703 29.6094 17.2812 29.6094 18.1719C29.6094 18.9844 29.9531 19.6797 30.6406 20.2578C31.5156 20.9922 33.6406 21.7578 37.0156 22.5547C40.3906 23.3516 42.8828 24.1797 44.4922 25.0391C46.1172 25.8828 47.3828 27.0469 48.2891 28.5312C49.2109 30 49.6719 31.8203 49.6719 33.9922C49.6719 35.9609 49.125 37.8047 48.0312 39.5234C46.9375 41.2422 45.3906 42.5234 43.3906 43.3672C41.3906 44.1953 38.8984 44.6094 35.9141 44.6094C31.5703 44.6094 28.2344 43.6094 25.9062 41.6094C23.5781 39.5938 22.1875 36.6641 21.7344 32.8203Z" fill="url(#paint1_linear_180_9)"/>
<defs>
<linearGradient id="paint0_linear_180_9" x1="0" y1="27.5" x2="31" y2="27.5" gradientUnits="userSpaceOnUse">
<stop stop-color="#1DB5E4"/>
<stop offset="1" stop-color="#146AB9"/>
</linearGradient>
<linearGradient id="paint1_linear_180_9" x1="20" y1="27.5" x2="50" y2="27.5" gradientUnits="userSpaceOnUse">
<stop stop-color="#1DB5E4"/>
<stop offset="1" stop-color="#146AB9"/>
</linearGradient>
</defs>
</svg>
